<?xml version="1.0" encoding="utf-8"?>
<svg version="1.1" xmlns:xlink="http://www.w3.org/1999/xlink" width="12px" height="12px" viewBox="224 219.5  12 12" xmlns="http://www.w3.org/2000/svg">
  <path d="M 230 219.5  C 233.36 219.5  236 222.14  236 225.5  C 236 228.86  233.36 231.5  230 231.5  C 226.64 231.5  224 228.86  224 225.5  C 224 222.14  226.64 219.5  230 219.5  Z " fill-rule="nonzero" fill="#f0f0f0" stroke="none" />
  <path d="M 230 220  C 233.08 220  235.5 222.42  235.5 225.5  C 235.5 228.58  233.08 231  230 231  C 226.92 231  224.5 228.58  224.5 225.5  C 224.5 222.42  226.92 220  230 220  Z " stroke-width="1" stroke="#797979" fill="none" />
  <path d="M 230 228.5  C 228.32 228.5  227 227.18  227 225.5  C 227 223.82  228.32 222.5  230 222.5  C 231.68 222.5  233 223.82  233 225.5  C 233 227.18  231.68 228.5  230 228.5  " fill-rule="nonzero" fill="#797979" stroke="none" />
</svg>