<?xml version="1.0" encoding="utf-8"?>
<svg version="1.1" xmlns:xlink="http://www.w3.org/1999/xlink" width="12px" height="12px" viewBox="294 219.5  12 12" xmlns="http://www.w3.org/2000/svg">
  <path d="M 300 219.5  C 303.36 219.5  306 222.14  306 225.5  C 306 228.86  303.36 231.5  300 231.5  C 296.64 231.5  294 228.86  294 225.5  C 294 222.14  296.64 219.5  300 219.5  Z " fill-rule="nonzero" fill="#ffffff" stroke="none" />
  <path d="M 300 220  C 303.08 220  305.5 222.42  305.5 225.5  C 305.5 228.58  303.08 231  300 231  C 296.92 231  294.5 228.58  294.5 225.5  C 294.5 222.42  296.92 220  300 220  Z " stroke-width="1" stroke="#797979" fill="none" />
  <path d="M 300 228.5  C 298.32 228.5  297 227.18  297 225.5  C 297 223.82  298.32 222.5  300 222.5  C 301.68 222.5  303 223.82  303 225.5  C 303 227.18  301.68 228.5  300 228.5  " fill-rule="nonzero" fill="#797979" stroke="none" />
</svg>